    <svg
      id="preloader"
      width="912"
      height="127"
      viewBox="0 0 912 127"
      fill="none"
      xmlns="http://www.w3.org/2000/svg"
    >
      <path
        d="M14.6 24.45C12 24.45 9.79999 23.55 7.99999 21.75C6.19999 19.95 5.29999 17.75 5.29999 15.15C5.29999 12.55 6.19999 10.35 7.99999 8.55001C9.79999 6.75001 12 5.85001 14.6 5.85001C17.1 5.85001 19.2 6.75001 20.9 8.55001C22.7 10.35 23.6 12.55 23.6 15.15C23.6 17.75 22.7 19.95 20.9 21.75C19.2 23.55 17.1 24.45 14.6 24.45ZM21.2 37.8V120H7.54999V37.8H21.2Z"
        stroke="#006C65"
        stroke-width="10"
        mask="url(#path-1-outside-1_1_12)"
      />
      <path
        d="M162.514 16.2V120H148.864V42.6L114.364 120H104.764L70.1141 42.45V120H56.4641V16.2H71.164L109.564 102L147.964 16.2H162.514Z"
        stroke="#006C65"
        stroke-width="10"
        mask="url(#path-1-outside-1_1_12)"
      />
      <path
        d="M192.563 78.6C192.563 70.2 194.263 62.85 197.663 56.55C201.063 50.15 205.713 45.2 211.613 41.7C217.613 38.2 224.263 36.45 231.563 36.45C238.763 36.45 245.013 38 250.313 41.1C255.613 44.2 259.563 48.1 262.163 52.8V37.8H275.963V120H262.163V104.7C259.463 109.5 255.413 113.5 250.013 116.7C244.713 119.8 238.513 121.35 231.413 121.35C224.113 121.35 217.513 119.55 211.613 115.95C205.713 112.35 201.063 107.3 197.663 100.8C194.263 94.3 192.563 86.9 192.563 78.6ZM262.163 78.75C262.163 72.55 260.913 67.15 258.413 62.55C255.913 57.95 252.513 54.45 248.213 52.05C244.013 49.55 239.363 48.3 234.263 48.3C229.163 48.3 224.513 49.5 220.313 51.9C216.113 54.3 212.763 57.8 210.263 62.4C207.763 67 206.513 72.4 206.513 78.6C206.513 84.9 207.763 90.4 210.263 95.1C212.763 99.7 216.113 103.25 220.313 105.75C224.513 108.15 229.163 109.35 234.263 109.35C239.363 109.35 244.013 108.15 248.213 105.75C252.513 103.25 255.913 99.7 258.413 95.1C260.913 90.4 262.163 84.95 262.163 78.75Z"
        stroke="#006C65"
        stroke-width="10"
        mask="url(#path-1-outside-1_1_12)"
      />
      <path
        d="M324.68 51.15C327.08 46.45 330.48 42.8 334.88 40.2C339.38 37.6 344.83 36.3 351.23 36.3V50.4H347.63C332.33 50.4 324.68 58.7 324.68 75.3V120H311.03V37.8H324.68V51.15Z"
        stroke="#006C65"
        stroke-width="10"
        mask="url(#path-1-outside-1_1_12)"
      />
      <path
        d="M395.638 49.05V97.5C395.638 101.5 396.487 104.35 398.188 106.05C399.888 107.65 402.838 108.45 407.038 108.45H417.087V120H404.788C397.188 120 391.488 118.25 387.688 114.75C383.887 111.25 381.987 105.5 381.987 97.5V49.05H371.337V37.8H381.987V17.1H395.638V37.8H417.087V49.05H395.638Z"
        stroke="#006C65"
        stroke-width="10"
        mask="url(#path-1-outside-1_1_12)"
      />
      <path
        d="M452.676 24.45C450.076 24.45 447.876 23.55 446.076 21.75C444.276 19.95 443.376 17.75 443.376 15.15C443.376 12.55 444.276 10.35 446.076 8.55001C447.876 6.75001 450.076 5.85001 452.676 5.85001C455.176 5.85001 457.276 6.75001 458.976 8.55001C460.776 10.35 461.676 12.55 461.676 15.15C461.676 17.75 460.776 19.95 458.976 21.75C457.276 23.55 455.176 24.45 452.676 24.45ZM459.276 37.8V120H445.626V37.8H459.276Z"
        stroke="#006C65"
        stroke-width="10"
        mask="url(#path-1-outside-1_1_12)"
      />
      <path
        d="M534.59 36.3C544.59 36.3 552.69 39.35 558.89 45.45C565.09 51.45 568.19 60.15 568.19 71.55V120H554.69V73.5C554.69 65.3 552.64 59.05 548.54 54.75C544.44 50.35 538.84 48.15 531.74 48.15C524.54 48.15 518.79 50.4 514.49 54.9C510.29 59.4 508.19 65.95 508.19 74.55V120H494.54V37.8H508.19V49.5C510.89 45.3 514.54 42.05 519.14 39.75C523.84 37.45 528.99 36.3 534.59 36.3Z"
        stroke="#006C65"
        stroke-width="10"
        mask="url(#path-1-outside-1_1_12)"
      />
      <path
        d="M635.037 15.45C646.437 15.45 656.288 17.6 664.588 21.9C672.988 26.1 679.387 32.15 683.787 40.05C688.287 47.95 690.537 57.25 690.537 67.95C690.537 78.65 688.287 87.95 683.787 95.85C679.387 103.65 672.988 109.65 664.588 113.85C656.288 117.95 646.437 120 635.037 120H602.487V15.45H635.037ZM635.037 108.75C648.537 108.75 658.838 105.2 665.938 98.1C673.038 90.9 676.588 80.85 676.588 67.95C676.588 54.95 672.987 44.8 665.787 37.5C658.687 30.2 648.437 26.55 635.037 26.55H616.138V108.75H635.037Z"
        stroke="#006C65"
        stroke-width="10"
        mask="url(#path-1-outside-1_1_12)"
      />
      <path
        d="M715.442 78.6C715.442 70.2 717.142 62.85 720.542 56.55C723.942 50.15 728.592 45.2 734.492 41.7C740.492 38.2 747.142 36.45 754.442 36.45C761.642 36.45 767.892 38 773.192 41.1C778.492 44.2 782.442 48.1 785.042 52.8V37.8H798.842V120H785.042V104.7C782.342 109.5 778.292 113.5 772.892 116.7C767.592 119.8 761.392 121.35 754.292 121.35C746.992 121.35 740.392 119.55 734.492 115.95C728.592 112.35 723.942 107.3 720.542 100.8C717.142 94.3 715.442 86.9 715.442 78.6ZM785.042 78.75C785.042 72.55 783.792 67.15 781.292 62.55C778.792 57.95 775.392 54.45 771.092 52.05C766.892 49.55 762.242 48.3 757.142 48.3C752.042 48.3 747.392 49.5 743.192 51.9C738.992 54.3 735.642 57.8 733.142 62.4C730.642 67 729.392 72.4 729.392 78.6C729.392 84.9 730.642 90.4 733.142 95.1C735.642 99.7 738.992 103.25 743.192 105.75C747.392 108.15 752.042 109.35 757.142 109.35C762.242 109.35 766.892 108.15 771.092 105.75C775.392 103.25 778.792 99.7 781.292 95.1C783.792 90.4 785.042 84.95 785.042 78.75Z"
        stroke="#006C65"
        stroke-width="10"
        mask="url(#path-1-outside-1_1_12)"
      />
      <path
        d="M864.509 107.4L890.009 37.8H904.559L872.309 120H856.409L824.159 37.8H838.859L864.509 107.4Z"
        stroke="#006C65"
        stroke-width="10"
        mask="url(#path-1-outside-1_1_12)"
      />
      <mask
      id="path-1-outside-1_1_12"
      maskUnits="userSpaceOnUse"
      x="0.299988"
      y="0.850006"
      width="912"
      height="126"
      fill="black"
    >
      <rect fill="white" x="0.299988" y="0.850006" width="912" height="126" />
      <path
        d="M14.6 24.45C12 24.45 9.79999 23.55 7.99999 21.75C6.19999 19.95 5.29999 17.75 5.29999 15.15C5.29999 12.55 6.19999 10.35 7.99999 8.55001C9.79999 6.75001 12 5.85001 14.6 5.85001C17.1 5.85001 19.2 6.75001 20.9 8.55001C22.7 10.35 23.6 12.55 23.6 15.15C23.6 17.75 22.7 19.95 20.9 21.75C19.2 23.55 17.1 24.45 14.6 24.45ZM21.2 37.8V120H7.54999V37.8H21.2Z"
      />
      <path
        d="M162.514 16.2V120H148.864V42.6L114.364 120H104.764L70.1141 42.45V120H56.4641V16.2H71.164L109.564 102L147.964 16.2H162.514Z"
      />
      <path
        d="M192.563 78.6C192.563 70.2 194.263 62.85 197.663 56.55C201.063 50.15 205.713 45.2 211.613 41.7C217.613 38.2 224.263 36.45 231.563 36.45C238.763 36.45 245.013 38 250.313 41.1C255.613 44.2 259.563 48.1 262.163 52.8V37.8H275.963V120H262.163V104.7C259.463 109.5 255.413 113.5 250.013 116.7C244.713 119.8 238.513 121.35 231.413 121.35C224.113 121.35 217.513 119.55 211.613 115.95C205.713 112.35 201.063 107.3 197.663 100.8C194.263 94.3 192.563 86.9 192.563 78.6ZM262.163 78.75C262.163 72.55 260.913 67.15 258.413 62.55C255.913 57.95 252.513 54.45 248.213 52.05C244.013 49.55 239.363 48.3 234.263 48.3C229.163 48.3 224.513 49.5 220.313 51.9C216.113 54.3 212.763 57.8 210.263 62.4C207.763 67 206.513 72.4 206.513 78.6C206.513 84.9 207.763 90.4 210.263 95.1C212.763 99.7 216.113 103.25 220.313 105.75C224.513 108.15 229.163 109.35 234.263 109.35C239.363 109.35 244.013 108.15 248.213 105.75C252.513 103.25 255.913 99.7 258.413 95.1C260.913 90.4 262.163 84.95 262.163 78.75Z"
      />
      <path
        d="M324.68 51.15C327.08 46.45 330.48 42.8 334.88 40.2C339.38 37.6 344.83 36.3 351.23 36.3V50.4H347.63C332.33 50.4 324.68 58.7 324.68 75.3V120H311.03V37.8H324.68V51.15Z"
      />
      <path
        d="M395.638 49.05V97.5C395.638 101.5 396.487 104.35 398.188 106.05C399.888 107.65 402.838 108.45 407.038 108.45H417.087V120H404.788C397.188 120 391.488 118.25 387.688 114.75C383.887 111.25 381.987 105.5 381.987 97.5V49.05H371.337V37.8H381.987V17.1H395.638V37.8H417.087V49.05H395.638Z"
      />
      <path
        d="M452.676 24.45C450.076 24.45 447.876 23.55 446.076 21.75C444.276 19.95 443.376 17.75 443.376 15.15C443.376 12.55 444.276 10.35 446.076 8.55001C447.876 6.75001 450.076 5.85001 452.676 5.85001C455.176 5.85001 457.276 6.75001 458.976 8.55001C460.776 10.35 461.676 12.55 461.676 15.15C461.676 17.75 460.776 19.95 458.976 21.75C457.276 23.55 455.176 24.45 452.676 24.45ZM459.276 37.8V120H445.626V37.8H459.276Z"
      />
      <path
        d="M534.59 36.3C544.59 36.3 552.69 39.35 558.89 45.45C565.09 51.45 568.19 60.15 568.19 71.55V120H554.69V73.5C554.69 65.3 552.64 59.05 548.54 54.75C544.44 50.35 538.84 48.15 531.74 48.15C524.54 48.15 518.79 50.4 514.49 54.9C510.29 59.4 508.19 65.95 508.19 74.55V120H494.54V37.8H508.19V49.5C510.89 45.3 514.54 42.05 519.14 39.75C523.84 37.45 528.99 36.3 534.59 36.3Z"
      />
      <path
        d="M635.037 15.45C646.437 15.45 656.288 17.6 664.588 21.9C672.988 26.1 679.387 32.15 683.787 40.05C688.287 47.95 690.537 57.25 690.537 67.95C690.537 78.65 688.287 87.95 683.787 95.85C679.387 103.65 672.988 109.65 664.588 113.85C656.288 117.95 646.437 120 635.037 120H602.487V15.45H635.037ZM635.037 108.75C648.537 108.75 658.838 105.2 665.938 98.1C673.038 90.9 676.588 80.85 676.588 67.95C676.588 54.95 672.987 44.8 665.787 37.5C658.687 30.2 648.437 26.55 635.037 26.55H616.138V108.75H635.037Z"
      />
      <path
        d="M715.442 78.6C715.442 70.2 717.142 62.85 720.542 56.55C723.942 50.15 728.592 45.2 734.492 41.7C740.492 38.2 747.142 36.45 754.442 36.45C761.642 36.45 767.892 38 773.192 41.1C778.492 44.2 782.442 48.1 785.042 52.8V37.8H798.842V120H785.042V104.7C782.342 109.5 778.292 113.5 772.892 116.7C767.592 119.8 761.392 121.35 754.292 121.35C746.992 121.35 740.392 119.55 734.492 115.95C728.592 112.35 723.942 107.3 720.542 100.8C717.142 94.3 715.442 86.9 715.442 78.6ZM785.042 78.75C785.042 72.55 783.792 67.15 781.292 62.55C778.792 57.95 775.392 54.45 771.092 52.05C766.892 49.55 762.242 48.3 757.142 48.3C752.042 48.3 747.392 49.5 743.192 51.9C738.992 54.3 735.642 57.8 733.142 62.4C730.642 67 729.392 72.4 729.392 78.6C729.392 84.9 730.642 90.4 733.142 95.1C735.642 99.7 738.992 103.25 743.192 105.75C747.392 108.15 752.042 109.35 757.142 109.35C762.242 109.35 766.892 108.15 771.092 105.75C775.392 103.25 778.792 99.7 781.292 95.1C783.792 90.4 785.042 84.95 785.042 78.75Z"
      />
      <path
        d="M864.509 107.4L890.009 37.8H904.559L872.309 120H856.409L824.159 37.8H838.859L864.509 107.4Z"
      />
    </mask>
    </svg>
